<svg width="31" height="31" viewBox="0 0 31 31" fill="none" xmlns="http://www.w3.org/2000/svg">
<path d="M6.57665 15.5007V9.63407C6.59407 8.48089 6.83887 7.34248 7.29702 6.28406C7.75516 5.22565 8.41765 4.26805 9.24653 3.46611C10.0754 2.66418 11.0544 2.03368 12.1273 1.61074C13.2003 1.1878 14.3462 0.980735 15.4993 1.00141C16.6524 0.980735 17.7983 1.1878 18.8713 1.61074C19.9442 2.03368 20.9232 2.66418 21.7521 3.46611C22.5809 4.26805 23.2434 5.22565 23.7016 6.28406C24.1597 7.34248 24.4045 8.48089 24.4219 9.63407V15.5007M19.9606 27.2117C21.1438 27.2117 22.2786 26.7416 23.1152 25.905C23.9519 25.0683 24.4219 23.9336 24.4219 22.7504V17.7314M19.9606 27.2117C19.9606 27.9512 19.6668 28.6604 19.1439 29.1833C18.621 29.7062 17.9118 30 17.1723 30H13.8263C13.0868 30 12.3776 29.7062 11.8547 29.1833C11.3317 28.6604 11.038 27.9512 11.038 27.2117C11.038 26.4722 11.3317 25.7629 11.8547 25.24C12.3776 24.7171 13.0868 24.4233 13.8263 24.4233H17.1723C17.9118 24.4233 18.621 24.7171 19.1439 25.24C19.6668 25.7629 19.9606 26.4722 19.9606 27.2117ZM3.23066 12.1547H5.46132C5.75713 12.1547 6.04081 12.2722 6.24998 12.4814C6.45914 12.6906 6.57665 12.9742 6.57665 13.27V19.962C6.57665 20.2578 6.45914 20.5415 6.24998 20.7507C6.04081 20.9598 5.75713 21.0774 5.46132 21.0774H3.23066C2.63905 21.0774 2.07168 20.8423 1.65335 20.424C1.23502 20.0057 1 19.4383 1 18.8467V14.3854C1 13.7938 1.23502 13.2264 1.65335 12.8081C2.07168 12.3897 2.63905 12.1547 3.23066 12.1547ZM27.7679 21.0774H25.5373C25.2415 21.0774 24.9578 20.9598 24.7486 20.7507C24.5394 20.5415 24.4219 20.2578 24.4219 19.962V13.27C24.4219 12.9742 24.5394 12.6906 24.7486 12.4814C24.9578 12.2722 25.2415 12.1547 25.5373 12.1547H27.7679C28.3595 12.1547 28.9269 12.3897 29.3452 12.8081C29.7636 13.2264 29.9986 13.7938 29.9986 14.3854V18.8467C29.9986 19.4383 29.7636 20.0057 29.3452 20.424C28.9269 20.8423 28.3595 21.0774 27.7679 21.0774Z" stroke="white" stroke-width="2" stroke-linecap="round" stroke-linejoin="round"/>
</svg>
