<svg width="25" height="29" viewBox="0 0 25 29" fill="none" xmlns="http://www.w3.org/2000/svg">
<path fill-rule="evenodd" clip-rule="evenodd" d="M17.7717 21.8737C17.8517 20.3511 17.5014 18.8368 16.761 17.5039C16.0206 16.1711 14.92 15.0736 13.5851 14.337C13.348 14.1999 13.0669 14.1601 12.8011 14.2262C12.5353 14.2922 12.3055 14.4589 12.1601 14.691L10.4622 17.4087L9.04966 15.7003C8.97205 15.6066 8.87588 15.5301 8.76722 15.4754C8.65856 15.4208 8.53975 15.3892 8.4183 15.3828C8.29684 15.3763 8.17536 15.3951 8.06152 15.4379C7.94768 15.4807 7.84394 15.5467 7.75685 15.6316C6.92437 16.4355 6.27422 17.4089 5.85033 18.4858C5.42644 19.5626 5.2387 20.718 5.29981 21.8737C5.29981 23.5273 5.95671 25.1133 7.12602 26.2826C8.29532 27.4519 9.88123 28.1088 11.5349 28.1088C13.1885 28.1088 14.7744 27.4519 15.9437 26.2826C17.113 25.1133 17.77 23.5273 17.77 21.8737H17.7717ZM8.34337 17.6113C8.30627 17.6589 8.26986 17.7071 8.23417 17.7557C7.40574 18.9127 6.99069 20.3148 7.05584 21.7363C7.05927 21.7708 7.06104 21.8055 7.06113 21.8402C7.06113 23.0267 7.53247 24.1647 8.37146 25.0036C9.21045 25.8426 10.3484 26.314 11.5349 26.314C12.7214 26.314 13.8593 25.8426 14.6983 25.0036C15.5373 24.1647 16.0086 23.0267 16.0086 21.8402L16.0139 21.7381C16.0262 21.6236 16.301 18.4743 13.4195 16.3326C13.3723 16.2974 13.3247 16.2628 13.2768 16.2287L11.438 19.1701C11.3492 19.3119 11.228 19.4307 11.0844 19.5165C10.9407 19.6024 10.7787 19.6529 10.6117 19.6639C10.4447 19.6749 10.2775 19.6461 10.1238 19.5798C9.97015 19.5136 9.83441 19.4118 9.72776 19.2828L8.34337 17.6095V17.6113Z" fill="white"/>
<path fill-rule="evenodd" clip-rule="evenodd" d="M10.5221 0.854099C10.5588 0.664997 10.6466 0.489547 10.7759 0.346777C10.9052 0.204006 11.0711 0.0993622 11.2557 0.0441942C11.4402 -0.0109738 11.6364 -0.014561 11.8228 0.0338217C12.0093 0.0822044 12.1789 0.180711 12.3134 0.318658C12.6551 0.667399 13.3121 1.35784 13.9796 2.15395C14.6348 2.93422 15.3499 3.873 15.7621 4.70963C16.1636 5.52688 16.5899 6.58367 16.9263 7.4661L18.4921 4.85934C18.5794 4.71376 18.7005 4.59135 18.8452 4.50248C18.9898 4.41362 19.1538 4.3609 19.3231 4.34881C19.4924 4.33671 19.6622 4.36559 19.818 4.433C19.9738 4.5004 20.1111 4.60435 20.2182 4.73605C22.4427 7.48371 23.5506 10.4269 24.1019 12.6743C24.3784 13.7998 24.5176 14.7562 24.588 15.4361C24.6235 15.7757 24.647 16.1164 24.6585 16.4576V16.5475C24.6585 23.4113 19.2142 29 12.3257 29C5.43896 29 0 23.4131 0 16.5475C0 14.6576 0.892989 10.2067 3.53497 6.55725C3.63733 6.41623 3.77303 6.30275 3.92995 6.22696C4.08687 6.15117 4.26011 6.11543 4.43421 6.12293C4.60831 6.13043 4.77784 6.18094 4.92766 6.26995C5.07748 6.35895 5.20292 6.48368 5.29277 6.63299L7.08051 9.60786C7.62299 8.75891 8.34866 7.56649 8.89995 6.46567C9.69255 4.88048 10.3213 1.89152 10.5221 0.855861V0.854099ZM11.9717 2.52735C11.6529 3.93641 11.1263 5.94784 10.4746 7.25474C9.608 8.98612 8.35923 10.8883 7.92946 11.5277C7.83033 11.6748 7.6957 11.7945 7.53804 11.8758C7.38037 11.9571 7.20476 11.9973 7.02744 11.9927C6.85011 11.9882 6.6768 11.939 6.52353 11.8497C6.37026 11.7604 6.24197 11.6339 6.15053 11.4819L4.35398 8.49295C2.42358 11.6158 1.76132 15.1261 1.76132 16.5475C1.76132 22.462 6.43586 27.2352 12.3257 27.2352C18.2173 27.2352 22.8972 22.462 22.8972 16.5475V16.4981C22.8871 16.2034 22.8671 15.9091 22.8373 15.6157C22.7467 14.7664 22.5978 13.9242 22.3917 13.0953C21.8336 10.7836 20.8414 8.599 19.4679 6.65765L17.6819 9.63076C17.5785 9.8025 17.4285 9.94136 17.2493 10.0312C17.0702 10.121 16.8692 10.1581 16.6697 10.1382C16.4702 10.1183 16.2806 10.0421 16.1227 9.91863C15.9648 9.79512 15.8452 9.62933 15.7779 9.44054C15.4926 8.6409 14.7933 6.73163 14.1804 5.48813C13.8686 4.8523 13.2715 4.04913 12.6304 3.28648C12.4152 3.0303 12.1956 2.77605 11.9717 2.52735Z" fill="white"/>
</svg>
