<svg width="35" height="35" viewBox="0 0 35 35" fill="none" xmlns="http://www.w3.org/2000/svg">
<circle cx="17.5" cy="17.5" r="16.5" fill="#4BA3B5" stroke="white" stroke-width="2"/>
<path d="M17.8696 15.6725C17.8696 17.5604 16.7609 20.2035 16.7609 20.2035M17.1304 16.4277C17.1304 16.4277 18.2391 13.407 15.6522 11.1415C13.0652 8.87599 9 9.63116 9 9.63116C9 9.63116 9 12.6518 11.2174 14.9173C13.4348 17.1828 17.1304 16.4277 17.1304 16.4277ZM17.8696 14.9173C17.8696 14.9173 16.7609 11.8967 19.3478 9.63116C21.9348 7.36566 26 8.12083 26 8.12083C26 8.12083 26 11.1415 23.7826 13.407C21.5652 15.6725 17.8696 14.9173 17.8696 14.9173ZM11.9565 20.2035H21.5652C21.5652 20.2035 22.3043 27 16.7609 27C11.2174 27 11.9565 20.2035 11.9565 20.2035Z" stroke="white" stroke-width="1.5" stroke-linecap="round" stroke-linejoin="round"/>
</svg>
