<svg width="175" height="269" viewBox="0 0 175 269" fill="none" xmlns="http://www.w3.org/2000/svg">
<rect x="6" y="261" width="2" height="6" transform="rotate(90 6 261)" fill="#D9D9D9"/>
<path d="M1.5 259H18C17.5 253.5 13.5 242.5 1.5 242.5" stroke="black"/>
<rect x="1.5" y="240.5" width="3" height="3" fill="white" stroke="black"/>
<rect x="1.5" y="258.5" width="3" height="3" fill="white" stroke="black"/>
<path d="M66.5 193L50 193C50.5 198.5 54.5 209.5 66.5 209.5" stroke="black"/>
<rect x="66.5" y="211.5" width="3" height="3" transform="rotate(-180 66.5 211.5)" fill="white" stroke="black"/>
<rect x="66.5" y="193.5" width="3" height="3" transform="rotate(-180 66.5 193.5)" fill="white" stroke="black"/>
<path d="M89.5 204L106 204C105.5 198.5 101.5 187.5 89.5 187.5" stroke="black"/>
<rect x="89.5" y="185.5" width="3" height="3" fill="white" stroke="black"/>
<rect x="89.5" y="203.5" width="3" height="3" fill="white" stroke="black"/>
<path d="M89.5 258L106 258C105.5 252.5 101.5 241.5 89.5 241.5" stroke="black"/>
<rect x="89.5" y="239.5" width="3" height="3" fill="white" stroke="black"/>
<rect x="89.5" y="257.5" width="3" height="3" fill="white" stroke="black"/>
<path d="M85 153.5L85 137C79.5 137.5 68.5 141.5 68.5 153.5" stroke="black"/>
<rect x="66.5" y="153.5" width="3" height="3" transform="rotate(-90 66.5 153.5)" fill="white" stroke="black"/>
<rect x="84.5" y="153.5" width="3" height="3" transform="rotate(-90 84.5 153.5)" fill="white" stroke="black"/>
<rect x="88" y="151" width="1" height="2" fill="#D9D9D9"/>
<path fill-rule="evenodd" clip-rule="evenodd" d="M18 0H0V6V240H5.99999L6 237H66V235.763V235V211H64V235H48V211H46V235H6V154H43V185H45H64V191H66V185V183V181H64V183H45V154H67V152H6V85H22V83H6V6H18V0ZM175 0H51V6H63L63 83H46V85H63H65V6L169 6V36H175V6V0ZM175 224V183H169V210H91V207H89V210V212V239H91V212H169V224H175ZM175 250V269H169H0V263H89V261H91V263H169V250H175ZM169 77H175V141H169V111H164V129H162V111L91 111V186H89V109H91L169 109V77Z" fill="black"/>
<path d="M25.032 48L22.6953 44.8999H22.1697V48H20.6321V40.7273H22.1697V43.6321H22.4787L24.8935 40.7273H26.8075L23.9702 44.1009L26.9389 48H25.032ZM28.2173 50.0455C28.0256 50.0455 27.8456 50.0301 27.6776 49.9993C27.5118 49.9709 27.3745 49.9342 27.2656 49.8892L27.6065 48.7599C27.7841 48.8144 27.9439 48.844 28.0859 48.8487C28.2304 48.8535 28.3546 48.8203 28.4588 48.7493C28.5653 48.6783 28.6518 48.5575 28.718 48.3871L28.8068 48.1562L26.8501 42.5455H28.4411L29.5703 46.5511H29.6271L30.767 42.5455H32.3686L30.2486 48.5895C30.1468 48.883 30.0083 49.1387 29.8331 49.3565C29.6603 49.5767 29.4413 49.746 29.1761 49.8643C28.911 49.9851 28.5914 50.0455 28.2173 50.0455ZM34.407 42.5455L35.4084 44.4524L36.4347 42.5455H37.9865L36.4062 45.2727L38.0291 48H36.4844L35.4084 46.1143L34.3501 48H32.7876L34.407 45.2727L32.8445 42.5455H34.407ZM42.6811 44.669V45.8587H39.8331V44.669H42.6811ZM40.3303 42.5455V48H38.8849V42.5455H40.3303ZM43.6293 42.5455V48H42.1946V42.5455H43.6293ZM47.9989 48V43.7315H46.9762C46.6992 43.7315 46.4885 43.7955 46.3441 43.9233C46.1997 44.0511 46.1287 44.2027 46.131 44.3778C46.1287 44.5554 46.1973 44.7057 46.337 44.8288C46.479 44.9496 46.6874 45.0099 46.962 45.0099H48.5032V46.0327H46.962C46.4956 46.0327 46.092 45.9616 45.7511 45.8196C45.4102 45.6776 45.1474 45.4799 44.9627 45.2266C44.7781 44.9709 44.6869 44.6738 44.6893 44.3352C44.6869 43.9801 44.7781 43.6688 44.9627 43.4013C45.1474 43.1314 45.4113 42.9219 45.7546 42.7727C46.1003 42.6212 46.5075 42.5455 46.9762 42.5455H49.4087V48H47.9989ZM44.533 48L46.0494 45.1591H47.4947L45.9819 48H44.533Z" fill="black"/>
<path d="M98.4581 50.7273V51.995H95.1697V58H93.6321V50.7273H98.4581ZM101.088 58.1065C100.536 58.1065 100.059 57.9893 99.6566 57.755C99.2565 57.5182 98.9476 57.1892 98.7298 56.7678C98.512 56.344 98.4031 55.8527 98.4031 55.294C98.4031 54.7306 98.512 54.2382 98.7298 53.8168C98.9476 53.393 99.2565 53.0639 99.6566 52.8295C100.059 52.5928 100.536 52.4744 101.088 52.4744C101.639 52.4744 102.115 52.5928 102.515 52.8295C102.918 53.0639 103.228 53.393 103.446 53.8168C103.663 54.2382 103.772 54.7306 103.772 55.294C103.772 55.8527 103.663 56.344 103.446 56.7678C103.228 57.1892 102.918 57.5182 102.515 57.755C102.115 57.9893 101.639 58.1065 101.088 58.1065ZM101.095 56.9347C101.346 56.9347 101.555 56.8636 101.723 56.7216C101.891 56.5772 102.018 56.3807 102.103 56.1321C102.191 55.8835 102.235 55.6006 102.235 55.2834C102.235 54.9661 102.191 54.6832 102.103 54.4347C102.018 54.1861 101.891 53.9896 101.723 53.8452C101.555 53.7008 101.346 53.6286 101.095 53.6286C100.842 53.6286 100.628 53.7008 100.456 53.8452C100.285 53.9896 100.156 54.1861 100.069 54.4347C99.9833 54.6832 99.9407 54.9661 99.9407 55.2834C99.9407 55.6006 99.9833 55.8835 100.069 56.1321C100.156 56.3807 100.285 56.5772 100.456 56.7216C100.628 56.8636 100.842 56.9347 101.095 56.9347ZM107.221 58.1065C106.662 58.1065 106.181 57.9882 105.779 57.7514C105.379 57.5123 105.071 57.1809 104.855 56.7571C104.642 56.3333 104.536 55.8456 104.536 55.294C104.536 54.7353 104.644 54.2453 104.859 53.8239C105.077 53.4001 105.386 53.0698 105.786 52.8331C106.186 52.594 106.662 52.4744 107.213 52.4744C107.689 52.4744 108.106 52.5608 108.463 52.7337C108.821 52.9065 109.104 53.1491 109.312 53.4616C109.52 53.7741 109.635 54.1411 109.657 54.5625H108.229C108.189 54.2902 108.082 54.0713 107.909 53.9055C107.739 53.7375 107.515 53.6534 107.238 53.6534C107.004 53.6534 106.799 53.7173 106.624 53.8452C106.451 53.9706 106.316 54.1541 106.219 54.3956C106.122 54.6371 106.074 54.9295 106.074 55.2727C106.074 55.6207 106.121 55.9167 106.216 56.1605C106.313 56.4044 106.449 56.5902 106.624 56.718C106.799 56.8459 107.004 56.9098 107.238 56.9098C107.411 56.9098 107.566 56.8743 107.703 56.8033C107.843 56.7322 107.958 56.6293 108.048 56.4943C108.14 56.357 108.201 56.1925 108.229 56.0007H109.657C109.633 56.4174 109.519 56.7843 109.316 57.1016C109.114 57.4164 108.836 57.6626 108.481 57.8402C108.126 58.0178 107.706 58.1065 107.221 58.1065ZM110.253 53.7351V52.5455H115.196V53.7351H113.439V58H111.997V53.7351H110.253ZM117.559 56.0043L119.523 52.5455H121.014V58H119.572V54.5305L117.616 58H116.113V52.5455H117.559V56.0043ZM126.023 54.669V55.8587H123.175V54.669H126.023ZM123.672 52.5455V58H122.227V52.5455H123.672ZM126.971 52.5455V58H125.536V52.5455H126.971ZM131.941 54.669V55.8587H129.093V54.669H131.941ZM129.59 52.5455V58H128.145V52.5455H129.59ZM132.889 52.5455V58H131.454V52.5455H132.889ZM135.618 58.103C135.27 58.103 134.96 58.0426 134.688 57.9219C134.415 57.7988 134.2 57.6177 134.041 57.3786C133.885 57.1371 133.807 56.8364 133.807 56.4766C133.807 56.1735 133.863 55.919 133.974 55.7131C134.085 55.5071 134.237 55.3414 134.428 55.2159C134.62 55.0904 134.838 54.9957 135.082 54.9318C135.328 54.8679 135.586 54.8229 135.856 54.7969C136.173 54.7637 136.429 54.733 136.623 54.7045C136.817 54.6738 136.958 54.6288 137.046 54.5696C137.133 54.5104 137.177 54.4228 137.177 54.3068V54.2855C137.177 54.0606 137.106 53.8866 136.964 53.7635C136.824 53.6404 136.625 53.5788 136.367 53.5788C136.095 53.5788 135.878 53.6392 135.718 53.7599C135.557 53.8783 135.45 54.0275 135.398 54.2074L133.999 54.0938C134.07 53.7623 134.209 53.4759 134.418 53.2344C134.626 52.9905 134.895 52.8035 135.224 52.6733C135.555 52.5407 135.939 52.4744 136.374 52.4744C136.677 52.4744 136.968 52.5099 137.244 52.581C137.524 52.652 137.771 52.7621 137.987 52.9112C138.204 53.0604 138.376 53.2521 138.502 53.4865C138.627 53.7185 138.69 53.9967 138.69 54.321V58H137.255V57.2436H137.213C137.125 57.4141 137.008 57.5644 136.861 57.6946C136.714 57.8224 136.538 57.9231 136.332 57.9964C136.126 58.0675 135.888 58.103 135.618 58.103ZM136.051 57.0589C136.274 57.0589 136.47 57.0152 136.641 56.9276C136.811 56.8376 136.945 56.7169 137.042 56.5653C137.139 56.4138 137.188 56.2422 137.188 56.0504V55.4716C137.14 55.5024 137.075 55.5308 136.992 55.5568C136.912 55.5805 136.821 55.603 136.719 55.6243C136.617 55.6432 136.515 55.661 136.414 55.6776C136.312 55.6918 136.219 55.7048 136.137 55.7166C135.959 55.7427 135.804 55.7841 135.671 55.8409C135.539 55.8977 135.436 55.9747 135.362 56.0717C135.289 56.1664 135.252 56.2848 135.252 56.4268C135.252 56.6328 135.327 56.7902 135.476 56.8991C135.628 57.0057 135.819 57.0589 136.051 57.0589ZM143.059 58V53.7315H142.037C141.76 53.7315 141.549 53.7955 141.405 53.9233C141.26 54.0511 141.189 54.2027 141.192 54.3778C141.189 54.5554 141.258 54.7057 141.398 54.8288C141.54 54.9496 141.748 55.0099 142.023 55.0099H143.564V56.0327H142.023C141.556 56.0327 141.153 55.9616 140.812 55.8196C140.471 55.6776 140.208 55.4799 140.023 55.2266C139.839 54.9709 139.747 54.6738 139.75 54.3352C139.747 53.9801 139.839 53.6688 140.023 53.4013C140.208 53.1314 140.472 52.9219 140.815 52.7727C141.161 52.6212 141.568 52.5455 142.037 52.5455H144.469V58H143.059ZM139.594 58L141.11 55.1591H142.555L141.042 58H139.594Z" fill="black"/>
<path d="M115.089 157.273H113.534C113.505 157.072 113.447 156.893 113.36 156.737C113.272 156.579 113.16 156.444 113.022 156.332C112.885 156.221 112.726 156.136 112.546 156.077C112.369 156.018 112.176 155.988 111.968 155.988C111.591 155.988 111.263 156.081 110.984 156.268C110.705 156.453 110.488 156.723 110.334 157.078C110.18 157.431 110.103 157.859 110.103 158.364C110.103 158.882 110.18 159.318 110.334 159.67C110.49 160.023 110.708 160.29 110.987 160.469C111.267 160.649 111.59 160.739 111.957 160.739C112.163 160.739 112.353 160.712 112.529 160.658C112.706 160.603 112.864 160.524 113.001 160.42C113.138 160.313 113.252 160.184 113.342 160.033C113.434 159.881 113.498 159.708 113.534 159.514L115.089 159.521C115.049 159.855 114.948 160.177 114.787 160.487C114.629 160.795 114.414 161.071 114.144 161.315C113.877 161.556 113.557 161.748 113.186 161.89C112.816 162.03 112.398 162.099 111.932 162.099C111.283 162.099 110.703 161.953 110.192 161.659C109.683 161.366 109.281 160.941 108.985 160.384C108.691 159.828 108.544 159.154 108.544 158.364C108.544 157.571 108.693 156.896 108.992 156.339C109.29 155.783 109.695 155.359 110.206 155.068C110.718 154.775 111.293 154.628 111.932 154.628C112.353 154.628 112.744 154.687 113.104 154.805C113.466 154.924 113.787 155.097 114.066 155.324C114.346 155.549 114.573 155.825 114.748 156.151C114.926 156.478 115.039 156.852 115.089 157.273ZM116.163 162V156.545H120.932V162H119.487V157.735H117.591V162H116.163ZM123.695 162.103C123.347 162.103 123.037 162.043 122.765 161.922C122.493 161.799 122.277 161.618 122.119 161.379C121.962 161.137 121.884 160.836 121.884 160.477C121.884 160.174 121.94 159.919 122.051 159.713C122.162 159.507 122.314 159.341 122.506 159.216C122.697 159.09 122.915 158.996 123.159 158.932C123.405 158.868 123.663 158.823 123.933 158.797C124.25 158.764 124.506 158.733 124.7 158.705C124.894 158.674 125.035 158.629 125.123 158.57C125.21 158.51 125.254 158.423 125.254 158.307V158.286C125.254 158.061 125.183 157.887 125.041 157.763C124.901 157.64 124.703 157.579 124.445 157.579C124.172 157.579 123.956 157.639 123.795 157.76C123.634 157.878 123.527 158.027 123.475 158.207L122.076 158.094C122.147 157.762 122.287 157.476 122.495 157.234C122.703 156.991 122.972 156.804 123.301 156.673C123.632 156.541 124.016 156.474 124.452 156.474C124.755 156.474 125.045 156.51 125.322 156.581C125.601 156.652 125.848 156.762 126.064 156.911C126.282 157.06 126.453 157.252 126.579 157.487C126.704 157.719 126.767 157.997 126.767 158.321V162H125.332V161.244H125.29C125.202 161.414 125.085 161.564 124.938 161.695C124.791 161.822 124.615 161.923 124.409 161.996C124.203 162.067 123.965 162.103 123.695 162.103ZM124.128 161.059C124.351 161.059 124.547 161.015 124.718 160.928C124.888 160.838 125.022 160.717 125.119 160.565C125.216 160.414 125.265 160.242 125.265 160.05V159.472C125.217 159.502 125.152 159.531 125.07 159.557C124.989 159.58 124.898 159.603 124.796 159.624C124.694 159.643 124.592 159.661 124.491 159.678C124.389 159.692 124.297 159.705 124.214 159.717C124.036 159.743 123.881 159.784 123.748 159.841C123.616 159.898 123.513 159.975 123.44 160.072C123.366 160.166 123.329 160.285 123.329 160.427C123.329 160.633 123.404 160.79 123.553 160.899C123.705 161.006 123.896 161.059 124.128 161.059ZM127.621 162L127.614 160.8H127.795C127.923 160.8 128.033 160.769 128.125 160.707C128.22 160.643 128.298 160.54 128.36 160.398C128.421 160.256 128.47 160.068 128.505 159.834C128.541 159.597 128.564 159.306 128.576 158.96L128.665 156.545H132.813V162H131.371V157.735H130.025L129.94 159.401C129.919 159.857 129.863 160.25 129.773 160.58C129.685 160.909 129.563 161.179 129.407 161.389C129.251 161.598 129.063 161.751 128.843 161.851C128.622 161.95 128.367 162 128.076 162H127.621ZM134.934 158.222H136.564C137.286 158.222 137.849 158.394 138.254 158.74C138.659 159.083 138.861 159.543 138.861 160.118C138.861 160.492 138.77 160.821 138.588 161.105C138.406 161.387 138.143 161.607 137.799 161.766C137.456 161.922 137.044 162 136.564 162H133.986V156.545H135.431V160.81H136.564C136.817 160.81 137.025 160.746 137.189 160.619C137.352 160.491 137.435 160.327 137.437 160.129C137.435 159.918 137.352 159.746 137.189 159.614C137.025 159.479 136.817 159.411 136.564 159.411H134.934V158.222ZM143.661 158.669V159.859H140.813V158.669H143.661ZM141.31 156.545V162H139.864V156.545H141.31ZM144.609 156.545V162H143.174V156.545H144.609ZM148.978 162V157.732H147.956C147.679 157.732 147.468 157.795 147.324 157.923C147.179 158.051 147.108 158.203 147.111 158.378C147.108 158.555 147.177 158.706 147.316 158.829C147.459 158.95 147.667 159.01 147.941 159.01H149.483V160.033H147.941C147.475 160.033 147.071 159.962 146.731 159.82C146.39 159.678 146.127 159.48 145.942 159.227C145.758 158.971 145.666 158.674 145.669 158.335C145.666 157.98 145.758 157.669 145.942 157.401C146.127 157.131 146.391 156.922 146.734 156.773C147.08 156.621 147.487 156.545 147.956 156.545H150.388V162H148.978ZM145.513 162L147.029 159.159H148.474L146.961 162H145.513Z" fill="black"/>
<path d="M115.089 235.273H113.534C113.505 235.072 113.447 234.893 113.36 234.737C113.272 234.579 113.16 234.444 113.022 234.332C112.885 234.221 112.726 234.136 112.546 234.077C112.369 234.018 112.176 233.988 111.968 233.988C111.591 233.988 111.263 234.081 110.984 234.268C110.705 234.453 110.488 234.723 110.334 235.078C110.18 235.431 110.103 235.859 110.103 236.364C110.103 236.882 110.18 237.318 110.334 237.67C110.49 238.023 110.708 238.29 110.987 238.469C111.267 238.649 111.59 238.739 111.957 238.739C112.163 238.739 112.353 238.712 112.529 238.658C112.706 238.603 112.864 238.524 113.001 238.42C113.138 238.313 113.252 238.184 113.342 238.033C113.434 237.881 113.498 237.708 113.534 237.514L115.089 237.521C115.049 237.855 114.948 238.177 114.787 238.487C114.629 238.795 114.414 239.071 114.144 239.315C113.877 239.556 113.557 239.748 113.186 239.89C112.816 240.03 112.398 240.099 111.932 240.099C111.283 240.099 110.703 239.953 110.192 239.659C109.683 239.366 109.281 238.941 108.985 238.384C108.691 237.828 108.544 237.154 108.544 236.364C108.544 235.571 108.693 234.896 108.992 234.339C109.29 233.783 109.695 233.359 110.206 233.068C110.718 232.775 111.293 232.628 111.932 232.628C112.353 232.628 112.744 232.687 113.104 232.805C113.466 232.924 113.787 233.097 114.066 233.324C114.346 233.549 114.573 233.825 114.748 234.151C114.926 234.478 115.039 234.852 115.089 235.273ZM116.163 240V234.545H120.932V240H119.487V235.735H117.591V240H116.163ZM123.695 240.103C123.347 240.103 123.037 240.043 122.765 239.922C122.493 239.799 122.277 239.618 122.119 239.379C121.962 239.137 121.884 238.836 121.884 238.477C121.884 238.174 121.94 237.919 122.051 237.713C122.162 237.507 122.314 237.341 122.506 237.216C122.697 237.09 122.915 236.996 123.159 236.932C123.405 236.868 123.663 236.823 123.933 236.797C124.25 236.764 124.506 236.733 124.7 236.705C124.894 236.674 125.035 236.629 125.123 236.57C125.21 236.51 125.254 236.423 125.254 236.307V236.286C125.254 236.061 125.183 235.887 125.041 235.763C124.901 235.64 124.703 235.579 124.445 235.579C124.172 235.579 123.956 235.639 123.795 235.76C123.634 235.878 123.527 236.027 123.475 236.207L122.076 236.094C122.147 235.762 122.287 235.476 122.495 235.234C122.703 234.991 122.972 234.804 123.301 234.673C123.632 234.541 124.016 234.474 124.452 234.474C124.755 234.474 125.045 234.51 125.322 234.581C125.601 234.652 125.848 234.762 126.064 234.911C126.282 235.06 126.453 235.252 126.579 235.487C126.704 235.719 126.767 235.997 126.767 236.321V240H125.332V239.244H125.29C125.202 239.414 125.085 239.564 124.938 239.695C124.791 239.822 124.615 239.923 124.409 239.996C124.203 240.067 123.965 240.103 123.695 240.103ZM124.128 239.059C124.351 239.059 124.547 239.015 124.718 238.928C124.888 238.838 125.022 238.717 125.119 238.565C125.216 238.414 125.265 238.242 125.265 238.05V237.472C125.217 237.502 125.152 237.531 125.07 237.557C124.989 237.58 124.898 237.603 124.796 237.624C124.694 237.643 124.592 237.661 124.491 237.678C124.389 237.692 124.297 237.705 124.214 237.717C124.036 237.743 123.881 237.784 123.748 237.841C123.616 237.898 123.513 237.975 123.44 238.072C123.366 238.166 123.329 238.285 123.329 238.427C123.329 238.633 123.404 238.79 123.553 238.899C123.705 239.006 123.896 239.059 124.128 239.059ZM127.621 240L127.614 238.8H127.795C127.923 238.8 128.033 238.769 128.125 238.707C128.22 238.643 128.298 238.54 128.36 238.398C128.421 238.256 128.47 238.068 128.505 237.834C128.541 237.597 128.564 237.306 128.576 236.96L128.665 234.545H132.813V240H131.371V235.735H130.025L129.94 237.401C129.919 237.857 129.863 238.25 129.773 238.58C129.685 238.909 129.563 239.179 129.407 239.389C129.251 239.598 129.063 239.751 128.843 239.851C128.622 239.95 128.367 240 128.076 240H127.621ZM134.934 236.222H136.564C137.286 236.222 137.849 236.394 138.254 236.74C138.659 237.083 138.861 237.543 138.861 238.118C138.861 238.492 138.77 238.821 138.588 239.105C138.406 239.387 138.143 239.607 137.799 239.766C137.456 239.922 137.044 240 136.564 240H133.986V234.545H135.431V238.81H136.564C136.817 238.81 137.025 238.746 137.189 238.619C137.352 238.491 137.435 238.327 137.437 238.129C137.435 237.918 137.352 237.746 137.189 237.614C137.025 237.479 136.817 237.411 136.564 237.411H134.934V236.222ZM143.661 236.669V237.859H140.813V236.669H143.661ZM141.31 234.545V240H139.864V234.545H141.31ZM144.609 234.545V240H143.174V234.545H144.609ZM148.978 240V235.732H147.956C147.679 235.732 147.468 235.795 147.324 235.923C147.179 236.051 147.108 236.203 147.111 236.378C147.108 236.555 147.177 236.706 147.316 236.829C147.459 236.95 147.667 237.01 147.941 237.01H149.483V238.033H147.941C147.475 238.033 147.071 237.962 146.731 237.82C146.39 237.678 146.127 237.48 145.942 237.227C145.758 236.971 145.666 236.674 145.669 236.335C145.666 235.98 145.758 235.669 145.942 235.401C146.127 235.131 146.391 234.922 146.734 234.773C147.08 234.621 147.487 234.545 147.956 234.545H150.388V240H148.978ZM145.513 240L147.029 237.159H148.474L146.961 240H145.513Z" fill="black"/>
</svg>
