<svg width="23" height="27" viewBox="0 0 23 27" fill="none" xmlns="http://www.w3.org/2000/svg">
<path d="M17.5662 2.76471C17.5662 3.73933 18.3563 4.52941 19.3309 4.52941C20.3056 4.52941 21.0956 3.73933 21.0956 2.76471C21.0956 1.79009 20.3056 1 19.3309 1C18.3563 1 17.5662 1.79009 17.5662 2.76471Z" fill="#AAAAAA" stroke="#AAAAAA" stroke-linecap="round"/>
<path d="M9.33094 2.76471C9.33094 3.73933 10.121 4.52941 11.0956 4.52941C12.0703 4.52941 12.8604 3.73933 12.8604 2.76471C12.8604 1.79009 12.0703 1 11.0956 1C10.121 1 9.33094 1.79009 9.33094 2.76471Z" fill="#AAAAAA" stroke="#AAAAAA" stroke-linecap="round"/>
<path d="M1.09565 2.76471C1.09565 3.73933 1.88573 4.52941 2.86035 4.52941C3.83498 4.52941 4.62506 3.73933 4.62506 2.76471C4.62506 1.79009 3.83498 1 2.86036 1C1.88573 1 1.09565 1.79009 1.09565 2.76471Z" fill="#AAAAAA" stroke="#AAAAAA" stroke-linecap="round"/>
<path d="M1.84 21.13H5.54V21.76H1.84V21.13ZM1.92 24.36H6.13V25H1.18V18H5.98V18.64H1.92V24.36ZM11.0518 24.38L10.8918 24.57V19.75H11.6018V24.57L11.4118 24.38H14.3418L14.1518 24.57V19.75H14.8618V25H7.6018V19.75H8.3118V24.57L8.1318 24.38H11.0518ZM15.0018 26.15V24.81L15.1818 25H14.1118V24.38H15.6718V26.15H15.0018ZM19.1291 25.05C18.5825 25.05 18.1025 24.9367 17.6891 24.71C17.2758 24.4767 16.9525 24.16 16.7191 23.76C16.4858 23.3533 16.3691 22.89 16.3691 22.37C16.3691 21.85 16.4791 21.39 16.6991 20.99C16.9258 20.59 17.2325 20.2767 17.6191 20.05C18.0125 19.8167 18.4525 19.7 18.9391 19.7C19.4325 19.7 19.8691 19.8133 20.2491 20.04C20.6358 20.26 20.9391 20.5733 21.1591 20.98C21.3791 21.38 21.4891 21.8433 21.4891 22.37C21.4891 22.4033 21.4858 22.44 21.4791 22.48C21.4791 22.5133 21.4791 22.55 21.4791 22.59H16.9091V22.06H21.0991L20.8191 22.27C20.8191 21.89 20.7358 21.5533 20.5691 21.26C20.4091 20.96 20.1891 20.7267 19.9091 20.56C19.6291 20.3933 19.3058 20.31 18.9391 20.31C18.5791 20.31 18.2558 20.3933 17.9691 20.56C17.6825 20.7267 17.4591 20.96 17.2991 21.26C17.1391 21.56 17.0591 21.9033 17.0591 22.29V22.4C17.0591 22.8 17.1458 23.1533 17.3191 23.46C17.4991 23.76 17.7458 23.9967 18.0591 24.17C18.3791 24.3367 18.7425 24.42 19.1491 24.42C19.4691 24.42 19.7658 24.3633 20.0391 24.25C20.3191 24.1367 20.5591 23.9633 20.7591 23.73L21.1591 24.19C20.9258 24.47 20.6325 24.6833 20.2791 24.83C19.9325 24.9767 19.5491 25.05 19.1291 25.05Z" fill="#AAAAAA"/>
</svg>
