<svg width="24" height="24" viewBox="0 0 24 24" fill="none" xmlns="http://www.w3.org/2000/svg">
<rect x="0.5" y="0.5" width="23" height="23" rx="11.5" fill="#333333"/>
<path fill-rule="evenodd" clip-rule="evenodd" d="M7.92985 7.92854C8.16653 7.69186 8.54067 7.68227 8.76552 7.90711L16.0936 15.2352C16.3185 15.46 16.3089 15.8342 16.0722 16.0708C15.8355 16.3075 15.4614 16.3171 15.2366 16.0923L7.90843 8.7642C7.68358 8.53935 7.69317 8.16522 7.92985 7.92854Z" fill="white"/>
<path fill-rule="evenodd" clip-rule="evenodd" d="M7.92855 16.0715C7.69187 15.8348 7.68227 15.4606 7.90712 15.2358L15.2352 7.90774C15.4601 7.6829 15.8342 7.6925 16.0709 7.92917C16.3076 8.16585 16.3172 8.53998 16.0923 8.76483L8.76421 16.0929C8.53936 16.3177 8.16522 16.3081 7.92855 16.0715Z" fill="white"/>
<rect x="0.5" y="0.5" width="23" height="23" rx="11.5" stroke="#333333"/>
</svg>
