<svg width="64" height="37" viewBox="0 0 64 37" fill="none" xmlns="http://www.w3.org/2000/svg">
<path d="M29.6435 18.7992V12.795H34.4468V18.7992C34.4468 19.4596 34.9872 20 35.6477 20H39.2502C39.9107 20 40.451 19.4596 40.451 18.7992V10.3933H42.4925C43.0449 10.3933 43.309 9.7088 42.8887 9.34854L32.8497 0.306214C32.3934 -0.102071 31.6969 -0.102071 31.2406 0.306214L21.2016 9.34854C20.7933 9.7088 21.0455 10.3933 21.5978 10.3933H23.6393V18.7992C23.6393 19.4596 24.1796 20 24.8401 20H28.4426C29.1031 20 29.6435 19.4596 29.6435 18.7992Z" fill="#AAAAAA"/>
<path d="M1.18 35V28H7.07V35H6.34V28.44L6.53 28.64H1.72L1.91 28.44V35H1.18ZM11.422 35.05C10.9153 35.05 10.4586 34.9367 10.052 34.71C9.65195 34.4767 9.33529 34.16 9.10195 33.76C8.86862 33.3533 8.75195 32.89 8.75195 32.37C8.75195 31.8433 8.86862 31.38 9.10195 30.98C9.33529 30.58 9.65195 30.2667 10.052 30.04C10.452 29.8133 10.9086 29.7 11.422 29.7C11.942 29.7 12.402 29.8133 12.802 30.04C13.2086 30.2667 13.5253 30.58 13.752 30.98C13.9853 31.38 14.102 31.8433 14.102 32.37C14.102 32.89 13.9853 33.3533 13.752 33.76C13.5253 34.16 13.2086 34.4767 12.802 34.71C12.3953 34.9367 11.9353 35.05 11.422 35.05ZM11.422 34.42C11.802 34.42 12.1386 34.3367 12.432 34.17C12.7253 33.9967 12.9553 33.7567 13.122 33.45C13.2953 33.1367 13.382 32.7767 13.382 32.37C13.382 31.9567 13.2953 31.5967 13.122 31.29C12.9553 30.9833 12.7253 30.7467 12.432 30.58C12.1386 30.4067 11.8053 30.32 11.432 30.32C11.0586 30.32 10.7253 30.4067 10.432 30.58C10.1386 30.7467 9.90529 30.9833 9.73195 31.29C9.55862 31.5967 9.47195 31.9567 9.47195 32.37C9.47195 32.7767 9.55862 33.1367 9.73195 33.45C9.90529 33.7567 10.1386 33.9967 10.432 34.17C10.7253 34.3367 11.0553 34.42 11.422 34.42ZM15.6194 35V29.75H16.3394L18.7194 33.78H18.4194L20.8394 29.75H21.4994V35H20.8494V30.56L20.9794 30.62L18.7194 34.36H18.3994L16.1194 30.58L16.2694 30.55V35H15.6194ZM25.7698 35.05C25.2231 35.05 24.7431 34.9367 24.3298 34.71C23.9164 34.4767 23.5931 34.16 23.3598 33.76C23.1264 33.3533 23.0098 32.89 23.0098 32.37C23.0098 31.85 23.1198 31.39 23.3398 30.99C23.5664 30.59 23.8731 30.2767 24.2598 30.05C24.6531 29.8167 25.0931 29.7 25.5798 29.7C26.0731 29.7 26.5098 29.8133 26.8898 30.04C27.2764 30.26 27.5798 30.5733 27.7998 30.98C28.0198 31.38 28.1298 31.8433 28.1298 32.37C28.1298 32.4033 28.1264 32.44 28.1198 32.48C28.1198 32.5133 28.1198 32.55 28.1198 32.59H23.5498V32.06H27.7398L27.4598 32.27C27.4598 31.89 27.3764 31.5533 27.2098 31.26C27.0498 30.96 26.8298 30.7267 26.5498 30.56C26.2698 30.3933 25.9464 30.31 25.5798 30.31C25.2198 30.31 24.8964 30.3933 24.6098 30.56C24.3231 30.7267 24.0998 30.96 23.9398 31.26C23.7798 31.56 23.6998 31.9033 23.6998 32.29V32.4C23.6998 32.8 23.7864 33.1533 23.9598 33.46C24.1398 33.76 24.3864 33.9967 24.6998 34.17C25.0198 34.3367 25.3831 34.42 25.7898 34.42C26.1098 34.42 26.4064 34.3633 26.6798 34.25C26.9598 34.1367 27.1998 33.9633 27.3998 33.73L27.7998 34.19C27.5664 34.47 27.2731 34.6833 26.9198 34.83C26.5731 34.9767 26.1898 35.05 25.7698 35.05ZM33.1514 34.38L32.9914 34.57V29.75H33.7014V34.57L33.5114 34.38H36.4414L36.2514 34.57V29.75H36.9614V35H29.7014V29.75H30.4114V34.57L30.2314 34.38H33.1514ZM37.1014 36.15V34.81L37.2814 35H36.2114V34.38H37.7714V36.15H37.1014ZM41.2288 35.05C40.6821 35.05 40.2021 34.9367 39.7888 34.71C39.3754 34.4767 39.0521 34.16 38.8188 33.76C38.5854 33.3533 38.4688 32.89 38.4688 32.37C38.4688 31.85 38.5788 31.39 38.7988 30.99C39.0254 30.59 39.3321 30.2767 39.7188 30.05C40.1121 29.8167 40.5521 29.7 41.0388 29.7C41.5321 29.7 41.9688 29.8133 42.3488 30.04C42.7354 30.26 43.0388 30.5733 43.2588 30.98C43.4788 31.38 43.5888 31.8433 43.5888 32.37C43.5888 32.4033 43.5854 32.44 43.5788 32.48C43.5788 32.5133 43.5788 32.55 43.5788 32.59H39.0088V32.06H43.1988L42.9188 32.27C42.9188 31.89 42.8354 31.5533 42.6688 31.26C42.5088 30.96 42.2888 30.7267 42.0088 30.56C41.7288 30.3933 41.4054 30.31 41.0388 30.31C40.6788 30.31 40.3554 30.3933 40.0688 30.56C39.7821 30.7267 39.5588 30.96 39.3988 31.26C39.2388 31.56 39.1588 31.9033 39.1588 32.29V32.4C39.1588 32.8 39.2454 33.1533 39.4188 33.46C39.5988 33.76 39.8454 33.9967 40.1588 34.17C40.4788 34.3367 40.8421 34.42 41.2488 34.42C41.5688 34.42 41.8654 34.3633 42.1388 34.25C42.4188 34.1367 42.6588 33.9633 42.8588 33.73L43.2588 34.19C43.0254 34.47 42.7321 34.6833 42.3788 34.83C42.0321 34.9767 41.6488 35.05 41.2288 35.05ZM45.1604 35V29.75H45.8704V32.07H49.1804V29.75H49.8904V35H49.1804V32.68H45.8704V35H45.1604ZM51.9084 35V29.75H52.6184V33.92L56.1284 29.75H56.7584V35H56.0484V30.82L52.5484 35H51.9084ZM61.0432 35.05C60.4965 35.05 60.0165 34.9367 59.6032 34.71C59.1899 34.4767 58.8665 34.16 58.6332 33.76C58.3999 33.3533 58.2832 32.89 58.2832 32.37C58.2832 31.85 58.3932 31.39 58.6132 30.99C58.8399 30.59 59.1465 30.2767 59.5332 30.05C59.9265 29.8167 60.3665 29.7 60.8532 29.7C61.3465 29.7 61.7832 29.8133 62.1632 30.04C62.5499 30.26 62.8532 30.5733 63.0732 30.98C63.2932 31.38 63.4032 31.8433 63.4032 32.37C63.4032 32.4033 63.3999 32.44 63.3932 32.48C63.3932 32.5133 63.3932 32.55 63.3932 32.59H58.8232V32.06H63.0132L62.7332 32.27C62.7332 31.89 62.6499 31.5533 62.4832 31.26C62.3232 30.96 62.1032 30.7267 61.8232 30.56C61.5432 30.3933 61.2199 30.31 60.8532 30.31C60.4932 30.31 60.1699 30.3933 59.8832 30.56C59.5965 30.7267 59.3732 30.96 59.2132 31.26C59.0532 31.56 58.9732 31.9033 58.9732 32.29V32.4C58.9732 32.8 59.0599 33.1533 59.2332 33.46C59.4132 33.76 59.6599 33.9967 59.9732 34.17C60.2932 34.3367 60.6565 34.42 61.0632 34.42C61.3832 34.42 61.6799 34.3633 61.9532 34.25C62.2332 34.1367 62.4732 33.9633 62.6732 33.73L63.0732 34.19C62.8399 34.47 62.5465 34.6833 62.1932 34.83C61.8465 34.9767 61.4632 35.05 61.0432 35.05Z" fill="#AAAAAA"/>
</svg>
