<svg width="39" height="37" viewBox="0 0 39 37" fill="none" xmlns="http://www.w3.org/2000/svg">
<rect x="10" y="1.70502" width="8.23273" height="8.23273" rx="2" fill="#AAAAAA"/>
<rect x="10" y="11.7672" width="8.23273" height="8.23273" rx="2" fill="#AAAAAA"/>
<rect x="20.0622" y="11.7672" width="8.23273" height="8.23273" rx="2" fill="#AAAAAA"/>
<rect x="24.1786" width="8.23273" height="8.23273" rx="2" transform="rotate(45 24.1786 0)" fill="#AAAAAA"/>
<path d="M4.24 35.06C3.71333 35.06 3.22667 34.9733 2.78 34.8C2.33333 34.62 1.94667 34.37 1.62 34.05C1.29333 33.73 1.03667 33.3533 0.85 32.92C0.67 32.4867 0.58 32.0133 0.58 31.5C0.58 30.9867 0.67 30.5133 0.85 30.08C1.03667 29.6467 1.29333 29.27 1.62 28.95C1.95333 28.63 2.34333 28.3833 2.79 28.21C3.23667 28.03 3.72333 27.94 4.25 27.94C4.75667 27.94 5.23333 28.0267 5.68 28.2C6.12667 28.3667 6.50333 28.62 6.81 28.96L6.34 29.43C6.05333 29.1367 5.73667 28.9267 5.39 28.8C5.04333 28.6667 4.67 28.6 4.27 28.6C3.85 28.6 3.46 28.6733 3.1 28.82C2.74 28.96 2.42667 29.1633 2.16 29.43C1.89333 29.69 1.68333 29.9967 1.53 30.35C1.38333 30.6967 1.31 31.08 1.31 31.5C1.31 31.92 1.38333 32.3067 1.53 32.66C1.68333 33.0067 1.89333 33.3133 2.16 33.58C2.42667 33.84 2.74 34.0433 3.1 34.19C3.46 34.33 3.85 34.4 4.27 34.4C4.67 34.4 5.04333 34.3333 5.39 34.2C5.73667 34.0667 6.05333 33.8533 6.34 33.56L6.81 34.03C6.50333 34.37 6.12667 34.6267 5.68 34.8C5.23333 34.9733 4.75333 35.06 4.24 35.06ZM10.1838 35.05C9.63716 35.05 9.15716 34.9367 8.74383 34.71C8.33049 34.4767 8.00716 34.16 7.77383 33.76C7.54049 33.3533 7.42383 32.89 7.42383 32.37C7.42383 31.85 7.53383 31.39 7.75383 30.99C7.98049 30.59 8.28716 30.2767 8.67383 30.05C9.06716 29.8167 9.50716 29.7 9.99383 29.7C10.4872 29.7 10.9238 29.8133 11.3038 30.04C11.6905 30.26 11.9938 30.5733 12.2138 30.98C12.4338 31.38 12.5438 31.8433 12.5438 32.37C12.5438 32.4033 12.5405 32.44 12.5338 32.48C12.5338 32.5133 12.5338 32.55 12.5338 32.59H7.96383V32.06H12.1538L11.8738 32.27C11.8738 31.89 11.7905 31.5533 11.6238 31.26C11.4638 30.96 11.2438 30.7267 10.9638 30.56C10.6838 30.3933 10.3605 30.31 9.99383 30.31C9.63383 30.31 9.31049 30.3933 9.02383 30.56C8.73716 30.7267 8.51383 30.96 8.35383 31.26C8.19383 31.56 8.11383 31.9033 8.11383 32.29V32.4C8.11383 32.8 8.20049 33.1533 8.37383 33.46C8.55383 33.76 8.80049 33.9967 9.11383 34.17C9.43383 34.3367 9.79716 34.42 10.2038 34.42C10.5238 34.42 10.8205 34.3633 11.0938 34.25C11.3738 34.1367 11.6138 33.9633 11.8138 33.73L12.2138 34.19C11.9805 34.47 11.6872 34.6833 11.3338 34.83C10.9872 34.9767 10.6038 35.05 10.1838 35.05ZM16.8255 35.05C16.3721 35.05 15.9621 34.9467 15.5955 34.74C15.2288 34.5267 14.9355 34.2233 14.7155 33.83C14.5021 33.43 14.3955 32.9433 14.3955 32.37C14.3955 31.7967 14.5021 31.3133 14.7155 30.92C14.9288 30.52 15.2188 30.2167 15.5855 30.01C15.9521 29.8033 16.3655 29.7 16.8255 29.7C17.3255 29.7 17.7721 29.8133 18.1655 30.04C18.5655 30.26 18.8788 30.5733 19.1055 30.98C19.3321 31.38 19.4455 31.8433 19.4455 32.37C19.4455 32.9033 19.3321 33.37 19.1055 33.77C18.8788 34.17 18.5655 34.4833 18.1655 34.71C17.7721 34.9367 17.3255 35.05 16.8255 35.05ZM14.1155 36.94V29.75H14.7955V31.33L14.7255 32.38L14.8255 33.44V36.94H14.1155ZM16.7755 34.42C17.1488 34.42 17.4821 34.3367 17.7755 34.17C18.0688 33.9967 18.3021 33.7567 18.4755 33.45C18.6488 33.1367 18.7355 32.7767 18.7355 32.37C18.7355 31.9633 18.6488 31.6067 18.4755 31.3C18.3021 30.9933 18.0688 30.7533 17.7755 30.58C17.4821 30.4067 17.1488 30.32 16.7755 30.32C16.4021 30.32 16.0655 30.4067 15.7655 30.58C15.4721 30.7533 15.2388 30.9933 15.0655 31.3C14.8988 31.6067 14.8155 31.9633 14.8155 32.37C14.8155 32.7767 14.8988 33.1367 15.0655 33.45C15.2388 33.7567 15.4721 33.9967 15.7655 34.17C16.0655 34.3367 16.4021 34.42 16.7755 34.42ZM20.9709 35V29.75H23.2909C23.8843 29.75 24.3509 29.8633 24.6909 30.09C25.0376 30.3167 25.2109 30.65 25.2109 31.09C25.2109 31.5167 25.0476 31.8467 24.7209 32.08C24.3943 32.3067 23.9643 32.42 23.4309 32.42L23.5709 32.21C24.1976 32.21 24.6576 32.3267 24.9509 32.56C25.2443 32.7933 25.3909 33.13 25.3909 33.57C25.3909 34.0233 25.2243 34.3767 24.8909 34.63C24.5643 34.8767 24.0543 35 23.3609 35H20.9709ZM21.6609 34.44H23.3309C23.7776 34.44 24.1143 34.37 24.3409 34.23C24.5743 34.0833 24.6909 33.85 24.6909 33.53C24.6909 33.21 24.5876 32.9767 24.3809 32.83C24.1743 32.6833 23.8476 32.61 23.4009 32.61H21.6609V34.44ZM21.6609 32.08H23.2409C23.6476 32.08 23.9576 32.0033 24.1709 31.85C24.3909 31.6967 24.5009 31.4733 24.5009 31.18C24.5009 30.8867 24.3909 30.6667 24.1709 30.52C23.9576 30.3733 23.6476 30.3 23.2409 30.3H21.6609V32.08ZM27.0549 35V29.75H27.7649V33.92L31.2749 29.75H31.9049V35H31.1949V30.82L27.6949 35H27.0549ZM36.1397 35.05C35.6197 35.05 35.153 34.9367 34.7397 34.71C34.333 34.4767 34.013 34.16 33.7797 33.76C33.5464 33.3533 33.4297 32.89 33.4297 32.37C33.4297 31.8433 33.5464 31.38 33.7797 30.98C34.013 30.58 34.333 30.2667 34.7397 30.04C35.153 29.8133 35.6197 29.7 36.1397 29.7C36.5864 29.7 36.9897 29.7867 37.3497 29.96C37.7097 30.1333 37.993 30.3933 38.1997 30.74L37.6697 31.1C37.4897 30.8333 37.2664 30.6367 36.9997 30.51C36.733 30.3833 36.443 30.32 36.1297 30.32C35.7564 30.32 35.4197 30.4067 35.1197 30.58C34.8197 30.7467 34.583 30.9833 34.4097 31.29C34.2364 31.5967 34.1497 31.9567 34.1497 32.37C34.1497 32.7833 34.2364 33.1433 34.4097 33.45C34.583 33.7567 34.8197 33.9967 35.1197 34.17C35.4197 34.3367 35.7564 34.42 36.1297 34.42C36.443 34.42 36.733 34.3567 36.9997 34.23C37.2664 34.1033 37.4897 33.91 37.6697 33.65L38.1997 34.01C37.993 34.35 37.7097 34.61 37.3497 34.79C36.9897 34.9633 36.5864 35.05 36.1397 35.05Z" fill="#AAAAAA"/>
</svg>
