<svg width="46" height="38" viewBox="0 0 46 38" fill="none" xmlns="http://www.w3.org/2000/svg">
<path d="M15.8604 4.52941C16.835 4.52941 17.6251 3.73933 17.6251 2.76471C17.6251 1.79009 16.835 1 15.8604 1C14.8858 1 14.0957 1.79009 14.0957 2.76471C14.0957 3.73933 14.8858 4.52941 15.8604 4.52941Z" fill="#AAAAAA" stroke="#AAAAAA" stroke-linecap="round"/>
<path d="M15.8604 12.7647C16.835 12.7647 17.6251 11.9746 17.6251 11C17.6251 10.0254 16.835 9.23529 15.8604 9.23529C14.8858 9.23529 14.0957 10.0254 14.0957 11C14.0957 11.9746 14.8858 12.7647 15.8604 12.7647Z" fill="#AAAAAA" stroke="#AAAAAA" stroke-linecap="round"/>
<path d="M15.8604 21C16.835 21 17.6251 20.2099 17.6251 19.2353C17.6251 18.2607 16.835 17.4706 15.8604 17.4706C14.8858 17.4706 14.0957 18.2607 14.0957 19.2353C14.0957 20.2099 14.8858 21 15.8604 21Z" fill="#AAAAAA" stroke="#AAAAAA" stroke-linecap="round"/>
<path d="M32.331 1H22.9192C21.9446 1 21.1545 1.79009 21.1545 2.76471C21.1545 3.73933 21.9446 4.52941 22.9192 4.52941H32.331C33.3056 4.52941 34.0957 3.73933 34.0957 2.76471C34.0957 1.79009 33.3056 1 32.331 1Z" fill="#AAAAAA" stroke="#AAAAAA" stroke-linecap="round"/>
<path d="M32.331 9.23529H22.9192C21.9446 9.23529 21.1545 10.0254 21.1545 11C21.1545 11.9746 21.9446 12.7647 22.9192 12.7647H32.331C33.3056 12.7647 34.0957 11.9746 34.0957 11C34.0957 10.0254 33.3056 9.23529 32.331 9.23529Z" fill="#AAAAAA" stroke="#AAAAAA" stroke-linecap="round"/>
<path d="M32.331 17.4706H22.9192C21.9446 17.4706 21.1545 18.2607 21.1545 19.2353C21.1545 20.2099 21.9446 21 22.9192 21H32.331C33.3056 21 34.0957 20.2099 34.0957 19.2353C34.0957 18.2607 33.3056 17.4706 32.331 17.4706Z" fill="#AAAAAA" stroke="#AAAAAA" stroke-linecap="round"/>
<path d="M4.24 36.06C3.71333 36.06 3.22667 35.9733 2.78 35.8C2.33333 35.62 1.94667 35.37 1.62 35.05C1.29333 34.73 1.03667 34.3533 0.85 33.92C0.67 33.4867 0.58 33.0133 0.58 32.5C0.58 31.9867 0.67 31.5133 0.85 31.08C1.03667 30.6467 1.29333 30.27 1.62 29.95C1.95333 29.63 2.34333 29.3833 2.79 29.21C3.23667 29.03 3.72333 28.94 4.25 28.94C4.75667 28.94 5.23333 29.0267 5.68 29.2C6.12667 29.3667 6.50333 29.62 6.81 29.96L6.34 30.43C6.05333 30.1367 5.73667 29.9267 5.39 29.8C5.04333 29.6667 4.67 29.6 4.27 29.6C3.85 29.6 3.46 29.6733 3.1 29.82C2.74 29.96 2.42667 30.1633 2.16 30.43C1.89333 30.69 1.68333 30.9967 1.53 31.35C1.38333 31.6967 1.31 32.08 1.31 32.5C1.31 32.92 1.38333 33.3067 1.53 33.66C1.68333 34.0067 1.89333 34.3133 2.16 34.58C2.42667 34.84 2.74 35.0433 3.1 35.19C3.46 35.33 3.85 35.4 4.27 35.4C4.67 35.4 5.04333 35.3333 5.39 35.2C5.73667 35.0667 6.05333 34.8533 6.34 34.56L6.81 35.03C6.50333 35.37 6.12667 35.6267 5.68 35.8C5.23333 35.9733 4.75333 36.06 4.24 36.06ZM10.0938 36.05C9.58716 36.05 9.13049 35.9367 8.72383 35.71C8.32383 35.4767 8.00716 35.16 7.77383 34.76C7.54049 34.3533 7.42383 33.89 7.42383 33.37C7.42383 32.8433 7.54049 32.38 7.77383 31.98C8.00716 31.58 8.32383 31.2667 8.72383 31.04C9.12383 30.8133 9.58049 30.7 10.0938 30.7C10.6138 30.7 11.0738 30.8133 11.4738 31.04C11.8805 31.2667 12.1972 31.58 12.4238 31.98C12.6572 32.38 12.7738 32.8433 12.7738 33.37C12.7738 33.89 12.6572 34.3533 12.4238 34.76C12.1972 35.16 11.8805 35.4767 11.4738 35.71C11.0672 35.9367 10.6072 36.05 10.0938 36.05ZM10.0938 35.42C10.4738 35.42 10.8105 35.3367 11.1038 35.17C11.3972 34.9967 11.6272 34.7567 11.7938 34.45C11.9672 34.1367 12.0538 33.7767 12.0538 33.37C12.0538 32.9567 11.9672 32.5967 11.7938 32.29C11.6272 31.9833 11.3972 31.7467 11.1038 31.58C10.8105 31.4067 10.4772 31.32 10.1038 31.32C9.7305 31.32 9.39716 31.4067 9.10383 31.58C8.81049 31.7467 8.57716 31.9833 8.40383 32.29C8.23049 32.5967 8.14383 32.9567 8.14383 33.37C8.14383 33.7767 8.23049 34.1367 8.40383 34.45C8.57716 34.7567 8.81049 34.9967 9.10383 35.17C9.39716 35.3367 9.72716 35.42 10.0938 35.42ZM16.6513 36.06C16.2246 36.06 15.8446 35.99 15.5113 35.85C15.1846 35.71 14.9046 35.4967 14.6713 35.21C14.4379 34.9233 14.2613 34.57 14.1413 34.15C14.0213 33.7233 13.9613 33.23 13.9613 32.67C13.9613 32.17 14.0079 31.7333 14.1013 31.36C14.1946 30.98 14.3246 30.6533 14.4913 30.38C14.6579 30.1067 14.8513 29.8767 15.0713 29.69C15.2979 29.4967 15.5413 29.3433 15.8013 29.23C16.0679 29.11 16.3413 29.02 16.6213 28.96L18.9813 28.41L19.1013 29.07L16.8813 29.57C16.7413 29.6033 16.5713 29.65 16.3713 29.71C16.1779 29.77 15.9779 29.86 15.7713 29.98C15.5713 30.1 15.3846 30.2667 15.2113 30.48C15.0379 30.6933 14.8979 30.97 14.7913 31.31C14.6913 31.6433 14.6413 32.06 14.6413 32.56C14.6413 32.6667 14.6446 32.7533 14.6513 32.82C14.6579 32.88 14.6646 32.9467 14.6713 33.02C14.6846 33.0867 14.6946 33.1867 14.7013 33.32L14.3913 33.06C14.4646 32.6533 14.6146 32.3 14.8413 32C15.0679 31.6933 15.3513 31.4567 15.6913 31.29C16.0379 31.1167 16.4213 31.03 16.8413 31.03C17.3279 31.03 17.7613 31.1367 18.1413 31.35C18.5213 31.5567 18.8179 31.8467 19.0313 32.22C19.2513 32.5933 19.3613 33.0267 19.3613 33.52C19.3613 34.0067 19.2479 34.4433 19.0213 34.83C18.8013 35.2167 18.4879 35.52 18.0813 35.74C17.6746 35.9533 17.1979 36.06 16.6513 36.06ZM16.7313 35.47C17.1046 35.47 17.4346 35.3867 17.7213 35.22C18.0079 35.0467 18.2313 34.8133 18.3913 34.52C18.5579 34.2267 18.6413 33.8967 18.6413 33.53C18.6413 33.17 18.5579 32.85 18.3913 32.57C18.2313 32.29 18.0079 32.07 17.7213 31.91C17.4346 31.7433 17.1013 31.66 16.7213 31.66C16.3479 31.66 16.0179 31.74 15.7313 31.9C15.4446 32.0533 15.2179 32.27 15.0513 32.55C14.8913 32.83 14.8113 33.1533 14.8113 33.52C14.8113 33.8867 14.8913 34.2167 15.0513 34.51C15.2179 34.8033 15.4446 35.0367 15.7313 35.21C16.0246 35.3833 16.3579 35.47 16.7313 35.47ZM26.003 36V30.75H26.713V36H26.003ZM23.093 32.6C23.753 32.6067 24.2564 32.7533 24.603 33.04C24.9497 33.3267 25.123 33.74 25.123 34.28C25.123 34.84 24.9364 35.27 24.563 35.57C24.1897 35.87 23.6564 36.0167 22.963 36.01L20.883 36V30.75H21.593V32.58L23.093 32.6ZM22.913 35.47C23.4064 35.4767 23.7764 35.38 24.023 35.18C24.2764 34.9733 24.403 34.6733 24.403 34.28C24.403 33.8867 24.2797 33.6 24.033 33.42C23.7864 33.2333 23.413 33.1367 22.913 33.13L21.593 33.11V35.45L22.913 35.47ZM29.7346 36V31.18L29.9146 31.37H27.7446V30.75H32.4346V31.37H30.2646L30.4446 31.18V36H29.7346ZM33.4612 36V30.75H34.1712V34.92L37.6812 30.75H38.3112V36H37.6012V31.82L34.1012 36H33.4612ZM43.7359 36V34.11L43.8659 34.26H42.0859C41.4126 34.26 40.8859 34.1133 40.5059 33.82C40.1259 33.5267 39.9359 33.1 39.9359 32.54C39.9359 31.94 40.1393 31.4933 40.5459 31.2C40.9526 30.9 41.4959 30.75 42.1759 30.75H44.3859V36H43.7359ZM39.8959 36L41.3359 33.98H42.0759L40.6659 36H39.8959ZM43.7359 33.9V31.16L43.8659 31.37H42.1959C41.7093 31.37 41.3293 31.4633 41.0559 31.65C40.7893 31.8367 40.6559 32.14 40.6559 32.56C40.6559 33.34 41.1526 33.73 42.1459 33.73H43.8659L43.7359 33.9Z" fill="#AAAAAA"/>
</svg>
