<svg width="30" height="36" viewBox="0 0 30 36" fill="none" xmlns="http://www.w3.org/2000/svg">
<path d="M15 0C20.523 0 25 4.477 25 10C25 15.523 20.523 20 15 20C9.477 20 5 15.523 5 10C5 4.477 9.477 0 15 0ZM16.5 4H13C12.7551 4.00003 12.5187 4.08996 12.3356 4.25272C12.1526 4.41547 12.0357 4.63975 12.007 4.883L12 5V9H11.5C11.2451 9.00028 11 9.09788 10.8146 9.27285C10.6293 9.44782 10.5178 9.68695 10.5028 9.94139C10.4879 10.1958 10.5707 10.4464 10.7343 10.6418C10.8979 10.8373 11.1299 10.9629 11.383 10.993L11.5 11H12V12H11.5C11.2451 12.0003 11 12.0979 10.8146 12.2728C10.6293 12.4478 10.5178 12.687 10.5028 12.9414C10.4879 13.1958 10.5707 13.4464 10.7343 13.6418C10.8979 13.8373 11.1299 13.9629 11.383 13.993L11.5 14H12V15C12.0003 15.2549 12.0979 15.5 12.2728 15.6854C12.4478 15.8707 12.687 15.9822 12.9414 15.9972C13.1958 16.0121 13.4464 15.9293 13.6418 15.7657C13.8373 15.6021 13.9629 15.3701 13.993 15.117L14 15V14H16C16.2549 13.9997 16.5 13.9021 16.6854 13.7272C16.8707 13.5522 16.9822 13.313 16.9972 13.0586C17.0121 12.8042 16.9293 12.5536 16.7657 12.3582C16.6021 12.1627 16.3701 12.0371 16.117 12.007L16 12H14V11H16.5C17.4125 11.0013 18.2894 10.6462 18.9439 10.0104C19.5984 9.37451 19.9787 8.50819 20.0037 7.59604C20.0288 6.68388 19.6966 5.79801 19.078 5.12721C18.4593 4.45642 17.6032 4.05374 16.692 4.005L16.5 4ZM16.5 6C16.8852 6.00019 17.2556 6.14858 17.5344 6.41441C17.8132 6.68024 17.979 7.04314 17.9975 7.42791C18.016 7.81269 17.8858 8.18983 17.6338 8.4812C17.3818 8.77257 17.0274 8.95583 16.644 8.993L16.5 9H14V6H16.5Z" fill="#AAAAAA"/>
<path d="M4.24 34.06C3.71333 34.06 3.22667 33.9733 2.78 33.8C2.33333 33.62 1.94667 33.37 1.62 33.05C1.29333 32.73 1.03667 32.3533 0.85 31.92C0.67 31.4867 0.58 31.0133 0.58 30.5C0.58 29.9867 0.67 29.5133 0.85 29.08C1.03667 28.6467 1.29333 28.27 1.62 27.95C1.95333 27.63 2.34333 27.3833 2.79 27.21C3.23667 27.03 3.72333 26.94 4.25 26.94C4.75667 26.94 5.23333 27.0267 5.68 27.2C6.12667 27.3667 6.50333 27.62 6.81 27.96L6.34 28.43C6.05333 28.1367 5.73667 27.9267 5.39 27.8C5.04333 27.6667 4.67 27.6 4.27 27.6C3.85 27.6 3.46 27.6733 3.1 27.82C2.74 27.96 2.42667 28.1633 2.16 28.43C1.89333 28.69 1.68333 28.9967 1.53 29.35C1.38333 29.6967 1.31 30.08 1.31 30.5C1.31 30.92 1.38333 31.3067 1.53 31.66C1.68333 32.0067 1.89333 32.3133 2.16 32.58C2.42667 32.84 2.74 33.0433 3.1 33.19C3.46 33.33 3.85 33.4 4.27 33.4C4.67 33.4 5.04333 33.3333 5.39 33.2C5.73667 33.0667 6.05333 32.8533 6.34 32.56L6.81 33.03C6.50333 33.37 6.12667 33.6267 5.68 33.8C5.23333 33.9733 4.75333 34.06 4.24 34.06ZM11.3124 31.78C11.0058 31.9133 10.6958 32.02 10.3824 32.1C10.0758 32.1733 9.76909 32.21 9.46242 32.21C8.84242 32.21 8.35242 32.07 7.99242 31.79C7.63242 31.5033 7.45242 31.0633 7.45242 30.47V28.75H8.15242V30.43C8.15242 30.83 8.28242 31.13 8.54242 31.33C8.80242 31.53 9.15242 31.63 9.59242 31.63C9.85909 31.63 10.1391 31.5967 10.4324 31.53C10.7258 31.4567 11.0224 31.3533 11.3224 31.22L11.3124 31.78ZM11.2524 34V28.75H11.9624V34H11.2524ZM16.2288 34.05C15.6821 34.05 15.2021 33.9367 14.7888 33.71C14.3754 33.4767 14.0521 33.16 13.8188 32.76C13.5854 32.3533 13.4688 31.89 13.4688 31.37C13.4688 30.85 13.5788 30.39 13.7988 29.99C14.0254 29.59 14.3321 29.2767 14.7188 29.05C15.1121 28.8167 15.5521 28.7 16.0388 28.7C16.5321 28.7 16.9688 28.8133 17.3488 29.04C17.7354 29.26 18.0388 29.5733 18.2588 29.98C18.4788 30.38 18.5888 30.8433 18.5888 31.37C18.5888 31.4033 18.5854 31.44 18.5788 31.48C18.5788 31.5133 18.5788 31.55 18.5788 31.59H14.0088V31.06H18.1988L17.9188 31.27C17.9188 30.89 17.8354 30.5533 17.6688 30.26C17.5088 29.96 17.2888 29.7267 17.0088 29.56C16.7288 29.3933 16.4054 29.31 16.0388 29.31C15.6788 29.31 15.3554 29.3933 15.0688 29.56C14.7821 29.7267 14.5588 29.96 14.3988 30.26C14.2388 30.56 14.1588 30.9033 14.1588 31.29V31.4C14.1588 31.8 14.2454 32.1533 14.4188 32.46C14.5988 32.76 14.8454 32.9967 15.1588 33.17C15.4788 33.3367 15.8421 33.42 16.2488 33.42C16.5688 33.42 16.8654 33.3633 17.1388 33.25C17.4188 33.1367 17.6588 32.9633 17.8588 32.73L18.2588 33.19C18.0254 33.47 17.7321 33.6833 17.3788 33.83C17.0321 33.9767 16.6488 34.05 16.2288 34.05ZM20.926 34V29.18L21.106 29.37H18.936V28.75H23.626V29.37H21.456L21.636 29.18V34H20.926ZM27.9126 34V32.84L27.8826 32.65V30.71C27.8826 30.2633 27.7559 29.92 27.5026 29.68C27.2559 29.44 26.8859 29.32 26.3926 29.32C26.0526 29.32 25.7292 29.3767 25.4226 29.49C25.1159 29.6033 24.8559 29.7533 24.6426 29.94L24.3226 29.41C24.5892 29.1833 24.9092 29.01 25.2826 28.89C25.6559 28.7633 26.0492 28.7 26.4626 28.7C27.1426 28.7 27.6659 28.87 28.0326 29.21C28.4059 29.5433 28.5926 30.0533 28.5926 30.74V34H27.9126ZM26.1026 34.05C25.7092 34.05 25.3659 33.9867 25.0726 33.86C24.7859 33.7267 24.5659 33.5467 24.4126 33.32C24.2592 33.0867 24.1826 32.82 24.1826 32.52C24.1826 32.2467 24.2459 32 24.3726 31.78C24.5059 31.5533 24.7192 31.3733 25.0126 31.24C25.3126 31.1 25.7126 31.03 26.2126 31.03H28.0226V31.56H26.2326C25.7259 31.56 25.3726 31.65 25.1726 31.83C24.9792 32.01 24.8826 32.2333 24.8826 32.5C24.8826 32.8 24.9992 33.04 25.2326 33.22C25.4659 33.4 25.7926 33.49 26.2126 33.49C26.6126 33.49 26.9559 33.4 27.2426 33.22C27.5359 33.0333 27.7492 32.7667 27.8826 32.42L28.0426 32.91C27.9092 33.2567 27.6759 33.5333 27.3426 33.74C27.0159 33.9467 26.6026 34.05 26.1026 34.05Z" fill="#AAAAAA"/>
</svg>
